<?xml version="1.0" encoding="UTF-8" standalone="no"?>
<!-- Created with Inkscape (http://www.inkscape.org/) -->

<svg
   xmlns:dc="http://purl.org/dc/elements/1.1/"
   xmlns:cc="http://creativecommons.org/ns#"
   xmlns:rdf="http://www.w3.org/1999/02/22-rdf-syntax-ns#"
   xmlns:svg="http://www.w3.org/2000/svg"
   xmlns="http://www.w3.org/2000/svg"
   xmlns:xlink="http://www.w3.org/1999/xlink"
   xmlns:sodipodi="http://sodipodi.sourceforge.net/DTD/sodipodi-0.dtd"
   xmlns:inkscape="http://www.inkscape.org/namespaces/inkscape"
   width="210mm"
   height="297mm"
   viewBox="0 0 210 297"
   version="1.1"
   id="svg8"
   inkscape:version="0.92.1 r15371"
   sodipodi:docname="ant.svg">
  <defs
     id="defs2">
    <linearGradient
       id="linearGradient4600"
       inkscape:collect="always">
      <stop
         id="stop4604"
         offset="0"
         style="stop-color:#ffffff;stop-opacity:1" />
      <stop
         id="stop4606"
         offset="1"
         style="stop-color:#000000;stop-opacity:1" />
    </linearGradient>
    <radialGradient
       inkscape:collect="always"
       xlink:href="#linearGradient4600"
       id="radialGradient4609"
       gradientUnits="userSpaceOnUse"
       gradientTransform="matrix(1.1235926,-0.84499548,0.50155602,0.66692022,-26.921665,70.770461)"
       cx="68.699081"
       cy="36.634365"
       fx="68.699081"
       fy="36.634365"
       r="2.9010551" />
  </defs>
  <sodipodi:namedview
     id="base"
     pagecolor="#ffffff"
     bordercolor="#666666"
     borderopacity="1.0"
     inkscape:pageopacity="0.0"
     inkscape:pageshadow="2"
     inkscape:zoom="0.9899495"
     inkscape:cx="224.26635"
     inkscape:cy="931.37237"
     inkscape:document-units="mm"
     inkscape:current-layer="g4656"
     showgrid="false"
     inkscape:snap-global="false"
     inkscape:window-width="716"
     inkscape:window-height="403"
     inkscape:window-x="557"
     inkscape:window-y="185"
     inkscape:window-maximized="0" />
  <metadata
     id="metadata5">
    <rdf:RDF>
      <cc:Work
         rdf:about="">
        <dc:format>image/svg+xml</dc:format>
        <dc:type
           rdf:resource="http://purl.org/dc/dcmitype/StillImage" />
        <dc:title />
      </cc:Work>
    </rdf:RDF>
  </metadata>
  <g
     inkscape:label="Layer 1"
     inkscape:groupmode="layer"
     id="layer1">
    <g
       id="g4656">
      <g
         id="g4757"
         transform="matrix(-1,0,0,1,172.51358,0)"
         inkscape:export-xdpi="45.528576"
         inkscape:export-ydpi="45.528576">
        <path
           style="fill:#ffffff;stroke:#000000;stroke-width:0.465;stroke-linecap:butt;stroke-linejoin:miter;stroke-miterlimit:4;stroke-dasharray:none;stroke-opacity:1"
           d="m 88.399394,47.771166 c 0,0 1.65135,3.308062 2.53906,5.479023 1.01615,2.485073 -0.15628,2.815899 -2.00452,2.605879 -1.83592,-0.20862 -4.624,-9.194205 -4.67722,-9.220798 z"
           id="path3707"
           inkscape:connector-curvature="0"
           sodipodi:nodetypes="csscc" />
        <path
           style="fill:#ffffff;stroke:#000000;stroke-width:0.465;stroke-linecap:butt;stroke-linejoin:miter;stroke-miterlimit:4;stroke-dasharray:none;stroke-opacity:1"
           d="m 57.857261,42.840219 c -1.701109,1.436509 -2.598588,0.04724 -3.827011,1.370163 -0.880256,1.786724 -0.529856,1.831632 -0.850446,2.834823 l 3.874256,-0.377979 1.6064,-4.063243"
           id="path3701"
           inkscape:connector-curvature="0"
           sodipodi:nodetypes="ccccc" />
        <path
           style="fill:#ffffff;stroke:#000000;stroke-width:0.465;stroke-linecap:butt;stroke-linejoin:miter;stroke-miterlimit:4;stroke-dasharray:none;stroke-opacity:1"
           d="m 60.361352,40.052643 c -1.224993,1.848456 -1.491787,3.856611 -4.063243,5.480656 -1.922815,1.214385 -2.4853,0.311144 -3.590774,0.850447 -0.616428,0.300723 -0.695561,1.429002 -0.755952,3.118303 -0.08519,2.383133 0.553895,3.910703 1.555792,0.198484 0.437123,-1.619625 6.801719,-2.727842 7.421142,-2.277353"
           id="path3693"
           inkscape:connector-curvature="0"
           sodipodi:nodetypes="cssssc" />
        <path
           style="fill:#ffffff;stroke:#000000;stroke-width:0.465;stroke-linecap:butt;stroke-linejoin:miter;stroke-miterlimit:4;stroke-dasharray:none;stroke-opacity:1"
           d="m 49.683523,31.737171 c 1.657496,0.656214 4.217769,0.650155 6.142114,1.511903 1.881788,0.842691 3.281896,2.457391 5.102678,3.496281 0.244698,0.139618 0.944335,-0.168494 0.755954,-0.377976 -1.661289,-1.847372 -3.332889,-2.556153 -5.197174,-3.496281 -1.761311,-0.888199 -3.903148,-1.629395 -5.575149,-1.984375 -0.487169,-0.10343 -1.691481,0.66712 -1.228423,0.850448 z"
           id="path3754"
           inkscape:connector-curvature="0"
           sodipodi:nodetypes="sassass" />
        <path
           style="fill:#ffffff;stroke:#000000;stroke-width:0.465;stroke-linecap:butt;stroke-linejoin:miter;stroke-miterlimit:4;stroke-dasharray:none;stroke-opacity:1"
           d="m 94.379554,42.693044 c -0.63917,-1.833083 -0.20543,-5.650318 -0.0668,-7.149459 0.0533,-0.57673 1.77326,-0.61148 1.73725,-0.03341 -0.0852,1.367818 0.86954,5.798297 0.66817,7.216277 -0.10962,0.771875 -2.08193,0.702743 -2.33862,-0.03341 z"
           id="path3730"
           inkscape:connector-curvature="0"
           sodipodi:nodetypes="sssss" />
        <path
           style="fill:#ffffff;stroke:#000000;stroke-width:0.465;stroke-linecap:butt;stroke-linejoin:miter;stroke-miterlimit:4;stroke-dasharray:none;stroke-opacity:1"
           d="m 111.1519,31.595427 c 2.35758,1.121484 4.54183,4.313289 7.55952,8.835194 0.55977,0.838799 3.64411,0.700591 3.02381,-0.09449 -3.72237,-4.771198 -7.56459,-8.190413 -9.78013,-9.921875 -0.60918,-0.476082 -2.02118,-0.856838 -2.31511,-0.141742 -0.25459,0.619375 0.90719,1.03525 1.51191,1.322913 z"
           id="path3740"
           inkscape:connector-curvature="0"
           sodipodi:nodetypes="ssssas" />
        <path
           style="fill:#ffffff;stroke:#000000;stroke-width:0.465;stroke-linecap:butt;stroke-linejoin:miter;stroke-miterlimit:4;stroke-dasharray:none;stroke-opacity:1"
           d="m 104.70283,43.36122 c 1.10384,-2.654863 1.97359,-11.012905 4.67722,-13.296659 0.63867,-0.539487 1.81093,1.046743 1.67043,1.870885 -0.57877,3.394976 -2.81531,9.434425 -3.60814,13.363477 -0.22124,1.096412 -3.16893,-0.904907 -2.73951,-1.937703 z"
           id="path3738"
           inkscape:connector-curvature="0"
           sodipodi:nodetypes="sssss" />
        <path
           style="fill:#ffffff;stroke:#000000;stroke-width:0.465;stroke-linecap:butt;stroke-linejoin:miter;stroke-miterlimit:4;stroke-dasharray:none;stroke-opacity:1"
           d="m 132.49795,58.819713 c -0.0346,1.501914 1.45015,3.651608 2.07133,5.545845 0.13551,0.413231 0.86885,0.0931 1.30294,0.06682 0.51901,-0.03143 1.31546,0.203219 1.5368,-0.267271 0.15288,-0.324966 -0.21951,-0.762998 -0.53453,-0.935442 -0.39123,-0.21416 -1.02904,0.390053 -1.33635,0.06682 -0.98536,-1.036397 -1.5535,-4.466795 -2.17157,-4.744036 -0.2764,-0.123983 -0.86165,-0.03559 -0.86862,0.267264 z"
           id="path3744-8"
           inkscape:connector-curvature="0"
           sodipodi:nodetypes="ssaaasss" />
        <path
           style="fill:#ffffff;stroke:#000000;stroke-width:0.465;stroke-linecap:butt;stroke-linejoin:miter;stroke-miterlimit:4;stroke-dasharray:none;stroke-opacity:1"
           d="m 107.30871,54.853807 c 3.9397,5.301108 11.8408,8.875287 17.77342,9.955792 5.89169,1.07305 11.36921,-0.429496 11.42577,-5.746295 0.0632,-5.936559 -3.46452,-12.191976 -8.15172,-15.835719 -4.31247,-3.352431 -10.68705,-5.065454 -15.96935,-3.674957 -2.74414,0.722358 -5.30169,3.082957 -6.28083,5.746295 -1.10766,3.012936 -0.71209,6.978404 1.20271,9.554884 z"
           id="path3736"
           inkscape:connector-curvature="0"
           sodipodi:nodetypes="sssaaas" />
        <path
           style="fill:none;stroke:#000000;stroke-width:0.465;stroke-linecap:butt;stroke-linejoin:miter;stroke-miterlimit:4;stroke-dasharray:none;stroke-opacity:1"
           d="m 120.53855,63.540068 c 0,0 3.8461,-1.694682 6.5481,-4.543582 3.01138,-3.175091 2.8229,-2.939271 4.14268,-6.147198 1.09576,-2.663416 0.90204,-5.779704 0.90204,-5.779704"
           id="path3764"
           inkscape:connector-curvature="0"
           sodipodi:nodetypes="cssc" />
        <path
           style="fill:#ffffff;stroke:#000000;stroke-width:0.465;stroke-linecap:butt;stroke-linejoin:miter;stroke-miterlimit:4;stroke-dasharray:none;stroke-opacity:1"
           d="m 94.237464,42.792972 c 2.02051,-0.139815 8.653816,-0.0021 12.331466,1.13393 0.82638,0.255268 1.20227,1.335641 1.41742,2.173362 0.73073,2.845267 1.75023,7.11067 -0.66146,8.787947 -2.66401,1.85276 -6.95118,-0.513223 -9.354906,-2.69308 -2.49783,-2.265195 -7.09646,-9.169381 -3.73252,-9.402159 z"
           id="path3728"
           inkscape:connector-curvature="0"
           sodipodi:nodetypes="ssaaas" />
        <path
           style="fill:none;stroke:#000000;stroke-width:0.465;stroke-linecap:butt;stroke-linejoin:miter;stroke-miterlimit:4;stroke-dasharray:none;stroke-opacity:1"
           d="m 93.076635,52.969122 c -0.586996,0.685724 -0.22613,1.948045 0.283483,2.69308 0.530731,0.775908 1.583677,2.084921 2.220611,1.700895 1.293226,-0.779723 0.548116,-3.524417 -0.614212,-4.488468 -0.485488,-0.402671 -1.479706,-0.384671 -1.889882,0.09449 z"
           id="path4611"
           inkscape:connector-curvature="0"
           sodipodi:nodetypes="assaa" />
        <path
           style="fill:#ffffff;stroke:#000000;stroke-width:0.465;stroke-linecap:butt;stroke-linejoin:miter;stroke-miterlimit:4;stroke-dasharray:none;stroke-opacity:1"
           d="m 96.78448,51.858921 c 0.18068,3.090544 1.57496,9.988872 1.93713,12.284226 0.0767,0.486252 1.6029,0.283468 1.46466,-0.18899 -1.13535,-3.880167 -1.61259,-9.996154 -2.26786,-12.331472 -0.10431,-0.371736 -1.15646,-0.149198 -1.13393,0.236236 z"
           id="path3742-0"
           inkscape:connector-curvature="0"
           sodipodi:nodetypes="sssss" />
        <path
           style="fill:#ffffff;stroke:#000000;stroke-width:0.465;stroke-linecap:butt;stroke-linejoin:miter;stroke-miterlimit:4;stroke-dasharray:none;stroke-opacity:1"
           d="m 94.095724,42.462243 c 0.51928,2.582181 9.182806,7.565696 9.449406,11.386534 0.25331,3.630303 -8.293476,1.676356 -10.819566,-1.322917 -1.37674,-1.634622 -3.12973,-3.349764 -4.11049,-4.91369 -0.84509,-1.347587 -0.23225,-3.607691 0.94494,-4.677455 1.12497,-1.022307 4.22086,-2.03808 4.53571,-0.472472 z"
           id="path3726"
           inkscape:connector-curvature="0"
           sodipodi:nodetypes="ssssas" />
        <path
           style="fill:#ffffff;stroke:#000000;stroke-width:0.465;stroke-linecap:butt;stroke-linejoin:miter;stroke-miterlimit:4;stroke-dasharray:none;stroke-opacity:1"
           d="m 94.001234,42.556739 c -0.42895,0.750528 -3.44901,1.325955 -4.39398,1.795386 -2.48015,1.232064 -4.96691,-6.049647 -2.69307,-7.630395 2.51097,-1.745596 7.49796,5.116057 7.08705,5.835009 z"
           id="path3714"
           inkscape:connector-curvature="0"
           sodipodi:nodetypes="ssss" />
        <path
           style="fill:#ffffff;stroke:#000000;stroke-width:0.465;stroke-linecap:butt;stroke-linejoin:miter;stroke-miterlimit:4;stroke-dasharray:none;stroke-opacity:1"
           d="m 76.639534,40.220802 c 1.6729,-1.796542 3.1823,-3.691879 5.87994,-4.127162 1.54896,-0.249936 5.57114,-0.237897 5.67947,0.534538 0.63935,4.55872 1.31959,4.383132 1.67043,5.663962 0.45945,1.677317 -0.25862,3.650368 -1.20271,5.612659 -0.37943,0.788641 -2.53906,-0.668174 -2.53906,-0.668174 z"
           id="path3705"
           inkscape:connector-curvature="0"
           sodipodi:nodetypes="csssscc" />
        <path
           style="fill:#ffffff;stroke:#000000;stroke-width:0.465;stroke-linecap:butt;stroke-linejoin:miter;stroke-miterlimit:4;stroke-dasharray:none;stroke-opacity:1"
           d="m 72.162771,53.016332 c -0.107929,0.279904 0.33041,0.970837 0.467723,2.204971 0.0789,0.709146 0.430067,-2.6949 -0.100227,-2.706103 -0.27181,-0.0057 -0.269684,0.247466 -0.367496,0.501132 z"
           id="path3696"
           inkscape:connector-curvature="0"
           sodipodi:nodetypes="ssss" />
        <path
           style="fill:#ffffff;stroke:#000000;stroke-width:0.465;stroke-linecap:butt;stroke-linejoin:miter;stroke-miterlimit:4;stroke-dasharray:none;stroke-opacity:1"
           d="m 74.629952,43.31269 c -1.367918,3.077774 -4.086193,9.066902 -4.015996,10.299852 0.05015,0.880915 1.998824,-0.254852 2.220609,-0.803199 1.759778,-4.350921 3.074829,-5.950955 3.685269,-8.220983 0.16813,-0.625226 0.40402,-1.588836 -0.14175,-1.937128 -0.52519,-0.335163 -1.495093,0.09213 -1.748132,0.661458 z"
           id="path3688"
           inkscape:connector-curvature="0"
           sodipodi:nodetypes="ssssas" />
        <path
           style="fill:#ffffff;stroke:#000000;stroke-width:0.465;stroke-linecap:butt;stroke-linejoin:miter;stroke-miterlimit:4;stroke-dasharray:none;stroke-opacity:1"
           d="m 76.639534,44.630747 c -1.434194,-0.177508 -3.005414,-2.7059 -2.071338,-3.80859 1.629868,-1.924077 4.994918,1.1621 7.149458,2.472243 1.57492,0.957685 5.71502,4.506587 4.00905,3.80859 -2.61119,-1.068366 -7.4385,-2.268189 -9.08717,-2.472243 z"
           id="path3703"
           inkscape:connector-curvature="0"
           sodipodi:nodetypes="saass" />
        <path
           style="fill:#ffffff;stroke:#000000;stroke-width:0.465;stroke-linecap:butt;stroke-linejoin:miter;stroke-miterlimit:4;stroke-dasharray:none;stroke-opacity:1"
           d="m 60.928317,47.42318 c -0.949437,-0.246547 -5.6828,-4.353011 -5.386162,-5.386162 1.617117,-5.632206 15.001348,-13.850309 20.410719,-6.425594 5.60452,7.692563 -10.06003,13.100931 -15.024557,11.811756 z"
           id="path3691"
           inkscape:connector-curvature="0"
           sodipodi:nodetypes="ssss" />
        <path
           style="fill:#ffffff;stroke:#000000;stroke-width:0.465;stroke-linecap:butt;stroke-linejoin:miter;stroke-miterlimit:4;stroke-dasharray:none;stroke-opacity:1"
           d="m 78.376784,48.038435 c 1.45198,-0.548934 4.46974,2.034112 9.15398,7.149459 1.31858,1.439933 3.645,-0.119355 2.93997,-1.603619 -1.32515,-2.789769 -4.55045,-6.546881 -8.0849,-7.750814 -1.48317,-0.505208 -3.63337,-1.077677 -4.54359,0.133635 -0.42836,0.57006 -0.13245,2.323501 0.53454,2.071339 z"
           id="path3709"
           inkscape:connector-curvature="0"
           sodipodi:nodetypes="ssssas" />
        <path
           style="fill:#ffffff;stroke:#000000;stroke-width:0.465;stroke-linecap:butt;stroke-linejoin:miter;stroke-miterlimit:4;stroke-dasharray:none;stroke-opacity:1"
           d="m 74.674768,61.687039 c -0.107929,0.279904 0.530862,1.705828 0.668175,2.939962 0.0789,0.709146 0.296431,-3.897612 -0.233862,-3.908815 -0.27181,-0.0057 -0.336501,0.715187 -0.434313,0.968853 z"
           id="path3696-8"
           inkscape:connector-curvature="0"
           sodipodi:nodetypes="ssss" />
        <path
           style="fill:#ffffff;stroke:#000000;stroke-width:0.465;stroke-linecap:butt;stroke-linejoin:miter;stroke-miterlimit:4;stroke-dasharray:none;stroke-opacity:1"
           d="m 73.23185,63.540066 c -0.716512,-0.909602 3.061324,-16.76033 4.610394,-16.704344 2.406,0.08696 -2.936852,18.828881 -4.610394,16.704344 z"
           id="path3711"
           inkscape:connector-curvature="0"
           sodipodi:nodetypes="sss" />
        <path
           style="fill:#ffffff;stroke:#000000;stroke-width:0.465;stroke-linecap:butt;stroke-linejoin:miter;stroke-miterlimit:4;stroke-dasharray:none;stroke-opacity:1"
           d="m 73.231849,62.671441 c -0.46428,0.09305 -1.361631,1.159492 -1.469982,1.870887 -0.505591,3.319538 -1.413104,6.80171 -1.469983,7.817633 -0.02915,0.52057 1.290779,0.422805 1.469983,-0.06682 1.055082,-2.8827 0.40149,-4.703759 1.069078,-6.548106 0.351658,-0.971525 1.413968,-3.276642 0.400904,-3.073598 z"
           id="path3713"
           inkscape:connector-curvature="0"
           sodipodi:nodetypes="ssssss" />
        <path
           style="fill:#ffffff;stroke:#000000;stroke-width:0.465;stroke-linecap:butt;stroke-linejoin:miter;stroke-miterlimit:4;stroke-dasharray:none;stroke-opacity:1"
           d="m 70.291884,72.560412 c -1.156095,0.436681 -1.04382,2.959365 -2.873147,3.407688 -1.050483,0.257448 -2.916142,-1.357667 -3.073599,-0.868627 -0.12453,0.386774 -0.274197,1.324453 -0.06682,1.469982 0.350685,0.246097 0.708155,-0.577255 1.135896,-0.601355 0.668967,-0.03769 1.218922,0.889513 1.870888,0.734991 1.706334,-0.404417 3.710553,-2.358853 4.009043,-3.80859 0.07102,-0.344924 -0.67282,-0.458526 -1.002261,-0.334089 z"
           id="path3715"
           inkscape:connector-curvature="0"
           sodipodi:nodetypes="ssssasss" />
        <path
           style="fill:#ffffff;stroke:#000000;stroke-width:0.465;stroke-linecap:butt;stroke-linejoin:miter;stroke-miterlimit:4;stroke-dasharray:none;stroke-opacity:1"
           d="m 71.322661,53.376305 c -0.962541,-0.302773 -2.308302,1.349814 -2.882069,1.842635 -0.824636,0.708299 -1.770741,5.196604 -2.740327,7.701264 -0.142251,0.367467 1.0048,0.305112 1.181174,-0.04725 1.27297,-2.543152 0.897744,-4.661259 2.126118,-6.614583 0.708469,-1.126586 1.783051,-1.101685 2.173362,-1.795386 0.179126,-0.318362 0.490204,-0.977069 0.141742,-1.08668 z"
           id="path3690"
           inkscape:connector-curvature="0"
           sodipodi:nodetypes="sssssss" />
        <path
           style="fill:#ffffff;stroke:#000000;stroke-width:0.465;stroke-linecap:butt;stroke-linejoin:miter;stroke-miterlimit:4;stroke-dasharray:none;stroke-opacity:1"
           d="m 57.830443,65.845268 c 0.07651,-0.17654 0.191908,-0.972699 0.367496,-1.102487 0.798941,-0.59055 1.624596,0.402267 2.271792,0.734992 0.176336,0.09065 0.278346,0.308755 0.46772,0.367495 0.330411,0.102487 0.703923,0.03126 1.035669,-0.06682 0.611989,-0.180933 1.157991,-0.55509 1.670436,-0.935443 0.670369,-0.497568 1.05923,-1.360181 1.804069,-1.737254 0.292383,-0.148018 0.802222,-0.449233 0.968852,-0.167042 0.145026,0.245605 -0.344317,0.455643 -0.534541,0.668174 -0.462147,0.51634 -0.90635,1.066858 -1.46998,1.469982 -0.554975,0.396934 -1.19771,0.66486 -1.837478,0.902034 -0.582499,0.215943 -1.255957,0.760143 -1.804069,0.467722 -0.453015,-0.241687 -0.755088,-0.744203 -1.369756,-0.935442 -1.131488,-0.352034 -1.697622,0.628074 -1.57021,0.334089 z"
           id="path3694"
           inkscape:connector-curvature="0"
           sodipodi:nodetypes="sssaaaaaaaasss" />
        <path
           style="fill:#ffffff;stroke:#000000;stroke-width:0.465;stroke-linecap:butt;stroke-linejoin:miter;stroke-miterlimit:4;stroke-dasharray:none;stroke-opacity:1"
           d="m 93.670504,53.470801 c 0.22211,-1.456598 2.88361,-0.977342 4.34672,-0.803201 1.11309,0.132482 1.986796,1.085714 3.071056,1.370164 1.46883,0.385341 3.24128,-0.368753 4.53571,0.425225 1.08009,0.662507 2.68961,2.129943 2.03163,3.212795 -1.25151,2.059632 -5.22856,0.493905 -6.75633,-0.09449 -0.985096,-0.379395 -2.567866,2.041597 -5.905876,-0.330729 -0.88738,-0.630661 -1.4794,-2.753486 -1.32291,-3.779764 z"
           id="path3724"
           inkscape:connector-curvature="0"
           sodipodi:nodetypes="saaassss" />
        <path
           style="fill:#ffffff;stroke:#000000;stroke-width:0.465;stroke-linecap:butt;stroke-linejoin:miter;stroke-miterlimit:4;stroke-dasharray:none;stroke-opacity:1"
           d="m 98.820424,56.022139 c 0.11274,0.89406 2.363256,1.074849 2.693076,0.236236 1.16451,-2.960915 0.96357,-13.036861 1.03944,-17.339657 0.0143,-0.808614 -2.12698,-1.041233 -2.4096,-0.283482 -1.103356,2.958323 -1.673236,14.608811 -1.322916,17.386903 z"
           id="path3718"
           inkscape:connector-curvature="0"
           sodipodi:nodetypes="sssss" />
        <path
           style="fill:#ffffff;stroke:#000000;stroke-width:0.465;stroke-linecap:butt;stroke-linejoin:miter;stroke-miterlimit:4;stroke-dasharray:none;stroke-opacity:1"
           d="m 106.75792,58.10101 c 0.18184,0.754093 -1.97762,0.934682 -2.3151,0.236233 -0.91247,-1.888476 -3.71616,-17.624199 -3.82701,-17.670386 -0.0469,-1.479404 0.46041,-1.573537 0.89769,-1.842635 2.30378,0.522752 4.50603,16.214676 5.24442,19.276788 z"
           id="path3716"
           inkscape:connector-curvature="0"
           sodipodi:nodetypes="ssccs" />
        <path
           style="fill:#ffffff;stroke:#000000;stroke-width:0.465;stroke-linecap:butt;stroke-linejoin:miter;stroke-miterlimit:4;stroke-dasharray:none;stroke-opacity:1"
           d="m 108.26983,55.124447 c -0.43866,0.171641 -0.57767,0.946934 -0.8032,1.511903 -0.14314,0.358577 -0.13473,1.026891 0.23623,1.13393 0.75182,0.216937 2.46022,-0.903652 2.97657,-1.417412 0.6391,-0.635887 -1.57003,-1.556934 -2.4096,-1.228421 z"
           id="path3722"
           inkscape:connector-curvature="0"
           sodipodi:nodetypes="sssss" />
        <path
           style="fill:#ffffff;stroke:#000000;stroke-width:0.465;stroke-linecap:butt;stroke-linejoin:miter;stroke-miterlimit:4;stroke-dasharray:none;stroke-opacity:1"
           d="m 109.30926,56.447364 c 0.99045,0.251455 2.22786,-0.554834 2.69308,-1.464659 2.62003,-5.123961 4.09179,-15.859056 7.55953,-18.70982 0.57192,-0.470167 -0.36903,-2.11909 -1.08669,-1.937128 -4.92201,1.247962 -7.47905,14.07266 -10.29985,20.363465 -0.28418,0.633769 0.46072,1.577228 1.13393,1.748142 z"
           id="path3720"
           inkscape:connector-curvature="0"
           sodipodi:nodetypes="assssa" />
        <path
           style="fill:#ffffff;stroke:#000000;stroke-width:0.465;stroke-linecap:butt;stroke-linejoin:miter;stroke-miterlimit:4;stroke-dasharray:none;stroke-opacity:1"
           d="m 119.60911,36.178389 c 3.38992,6.12525 7.44291,15.832497 13.98512,21.261162 0.50439,0.418542 1.49616,-1.060156 1.13393,-1.606399 -3.2398,-4.885639 -11.8227,-18.39617 -15.21354,-21.166666 -0.39103,-0.31949 -0.15002,1.070099 0.0945,1.511903 z"
           id="path3732"
           inkscape:connector-curvature="0"
           sodipodi:nodetypes="sssss" />
        <path
           style="fill:#ffffff;stroke:#000000;stroke-width:0.465;stroke-linecap:butt;stroke-linejoin:miter;stroke-miterlimit:4;stroke-dasharray:none;stroke-opacity:1"
           d="m 143.59055,71.324292 c 0.56858,0.761795 2.45351,1.700289 3.80859,2.305201 0.97791,0.436548 2.03597,0.670446 3.0736,0.935442 0.58405,0.149159 1.16841,0.393295 1.77066,0.367496 0.8941,-0.0383 1.69511,-0.591919 2.57247,-0.768398 0.30744,-0.06184 0.8393,0.198271 0.93544,-0.100227 0.087,-0.270247 -0.36121,-0.491926 -0.63476,-0.567949 -1.09216,-0.303522 -2.20901,0.696607 -3.34087,0.634767 -1.55822,-0.08513 -3.05236,-0.732308 -4.47677,-1.369759 -1.23597,-0.55312 -2.56757,-2.06123 -3.4745,-2.104747 -0.2357,-0.01131 -0.37501,0.479067 -0.23386,0.668174 z"
           id="path3746"
           inkscape:connector-curvature="0"
           sodipodi:nodetypes="saaaaaaaass" />
        <path
           style="fill:#ffffff;stroke:#000000;stroke-width:0.465;stroke-linecap:butt;stroke-linejoin:miter;stroke-miterlimit:4;stroke-dasharray:none;stroke-opacity:1"
           d="m 133.49974,57.392302 c 2.23306,4.244714 6.50666,9.738365 9.49665,13.937874 0.20669,0.290297 0.94786,-0.455684 0.75595,-0.755954 -2.59788,-4.064715 -8.23325,-11.680593 -9.02418,-14.504837 -0.16228,-0.579474 -1.50859,0.79035 -1.22842,1.322917 z"
           id="path3734"
           inkscape:connector-curvature="0"
           sodipodi:nodetypes="sssss" />
        <path
           style="fill:#ffffff;stroke:#000000;stroke-width:0.465;stroke-linecap:butt;stroke-linejoin:miter;stroke-miterlimit:4;stroke-dasharray:none;stroke-opacity:1"
           d="m 107.6428,71.357701 c -0.0346,1.501914 1.45015,3.651608 2.07133,5.545844 0.13551,0.413232 0.86885,0.0931 1.30294,0.06682 0.51901,-0.03143 1.31546,0.203219 1.5368,-0.267271 0.15288,-0.324965 -0.21951,-0.762998 -0.53453,-0.935442 -0.39123,-0.214159 -1.02904,0.390053 -1.33635,0.06682 -0.98536,-1.036397 -1.5535,-4.466794 -2.17157,-4.744035 -0.2764,-0.123983 -0.86165,-0.03559 -0.86862,0.267264 z"
           id="path3744"
           inkscape:connector-curvature="0"
           sodipodi:nodetypes="ssaaasss" />
        <path
           style="fill:#ffffff;stroke:#000000;stroke-width:0.465;stroke-linecap:butt;stroke-linejoin:miter;stroke-miterlimit:4;stroke-dasharray:none;stroke-opacity:1"
           d="m 105.29326,58.762468 c 0.18068,3.090544 1.57496,9.988872 1.93713,12.284226 0.0767,0.486252 1.6029,0.283468 1.46466,-0.18899 -1.13535,-3.880167 -1.61259,-9.996154 -2.26786,-12.331472 -0.10431,-0.371736 -1.15646,-0.149198 -1.13393,0.236236 z"
           id="path3742"
           inkscape:connector-curvature="0"
           sodipodi:nodetypes="sssss" />
        <path
           style="fill:#ffffff;stroke:#000000;stroke-width:0.465;stroke-linecap:butt;stroke-linejoin:miter;stroke-miterlimit:4;stroke-dasharray:none;stroke-opacity:1"
           d="m 17.083078,34.855472 c 3.199861,-0.908474 5.535956,-2.193462 9.5439,-2.36235 5.656655,-0.238362 13.606659,1.811481 16.81994,2.36235 0.531406,0.0911 0.917044,-1.474429 0.377975,-1.464655 -4.534935,0.08223 -12.234212,-3.058936 -18.426339,-2.220612 -2.897489,0.392278 -6.767583,1.461478 -8.315476,3.685267 z"
           id="path3748"
           inkscape:connector-curvature="0"
           sodipodi:nodetypes="cssssc" />
        <path
           style="fill:#ffffff;stroke:#000000;stroke-width:0.465;stroke-linecap:butt;stroke-linejoin:miter;stroke-miterlimit:4;stroke-dasharray:none;stroke-opacity:1"
           d="m 30.134638,29.930926 c 0.929509,-1.746678 3.410005,-1.790841 5.278572,-1.937705 3.553332,-0.279282 6.988882,1.40499 10.49033,2.07134 1.608072,0.306027 3.238609,0.496231 4.830423,0.884838 0.420115,0.102562 -0.636865,0.749414 -1.069078,0.734991 -3.748043,-0.125073 -5.52361,-1.157573 -8.304926,-1.619829 -1.939687,-0.322377 -3.846852,-0.990857 -5.813113,-1.00226 -1.827126,-0.0106 -3.079587,0.297869 -5.412208,0.868625 z"
           id="path3750"
           inkscape:connector-curvature="0"
           sodipodi:nodetypes="caasssac" />
        <path
           style="fill:#ffffff;stroke:#000000;stroke-width:0.465;stroke-linecap:butt;stroke-linejoin:miter;stroke-miterlimit:4;stroke-dasharray:none;stroke-opacity:1"
           d="m 60.125116,37.832035 c -0.04513,0.236648 -0.08741,0.783033 0.14174,0.708705 0.428547,-0.139002 1.933967,-0.787682 1.653646,-1.275668 -0.190269,-0.331223 -0.981792,-0.324658 -1.275667,-0.236236 -0.30537,0.09188 -0.459977,0.489952 -0.519719,0.803199 z"
           id="path3758"
           inkscape:connector-curvature="0"
           sodipodi:nodetypes="asssa" />
        <path
           style="fill:#ffffff;stroke:#000000;stroke-width:0.465;stroke-linecap:butt;stroke-linejoin:miter;stroke-miterlimit:4;stroke-dasharray:none;stroke-opacity:1"
           d="m 43.919387,33.438062 c 3.252072,0.290175 8.402597,0.217602 12.378719,1.41741 1.591375,0.480203 3.095232,1.381912 4.441222,2.267858 0.260457,0.171436 -0.386147,0.807854 -0.661458,0.661458 -1.176616,-0.625662 -2.75852,-1.959236 -4.346726,-2.456844 -3.952394,-1.238341 -8.081053,0.328543 -12.567708,-0.472472 -0.527131,-0.09411 0.222604,-1.464999 0.755951,-1.41741 z"
           id="path3752"
           inkscape:connector-curvature="0"
           sodipodi:nodetypes="sasssss" />
        <path
           style="fill:none;stroke:#000000;stroke-width:0.465;stroke-linecap:butt;stroke-linejoin:miter;stroke-miterlimit:4;stroke-dasharray:none;stroke-opacity:1"
           d="m 57.329312,44.697567 c 0,0 0.933881,-2.870291 1.870887,-4.009043 1.296403,-1.57553 4.944486,-3.608139 4.944486,-3.608139"
           id="path3756"
           inkscape:connector-curvature="0"
           sodipodi:nodetypes="cac" />
        <path
           style="fill:url(#radialGradient4609);fill-opacity:1;stroke:#000000;stroke-width:0.465;stroke-linecap:butt;stroke-linejoin:miter;stroke-miterlimit:4;stroke-dasharray:none;stroke-opacity:1"
           d="m 71.106019,36.698346 c -0.63122,-1.304185 -3.19694,-0.881662 -4.34673,0 -0.86704,0.664847 -1.42662,2.237223 -0.85044,3.165552 0.33878,0.545847 1.37641,0.764073 1.88988,0.377976 1.53809,-1.156541 3.95123,-2.213064 3.30729,-3.543528 z"
           id="path3760"
           inkscape:connector-curvature="0"
           sodipodi:nodetypes="saass" />
        <path
           style="fill:none;stroke:#000000;stroke-width:0.465;stroke-linecap:butt;stroke-linejoin:miter;stroke-miterlimit:4;stroke-dasharray:none;stroke-opacity:1"
           d="m 115.26239,61.313805 c 0,0 4.39074,-4.937212 6.04762,-10.772319 1.40911,-4.962536 -0.61422,-10.914063 -0.61422,-10.914063"
           id="path3762"
           inkscape:connector-curvature="0"
           sodipodi:nodetypes="csc" />
        <path
           style="fill:none;stroke:#000000;stroke-width:0.465;stroke-linecap:butt;stroke-linejoin:miter;stroke-miterlimit:4;stroke-dasharray:none;stroke-opacity:1"
           d="m 124.41396,64.609146 c 0,0 4.8897,0.119087 8.15172,-2.004521 2.3162,-1.507867 3.87541,-4.009043 3.87541,-4.009043"
           id="path3766"
           inkscape:connector-curvature="0"
           sodipodi:nodetypes="csc" />
      </g>
    </g>
  </g>
</svg>
